# xmcd CD database file
#
# Track frame offsets:
#	150
#	1231
#	19648
#	50219
#	80129
#	101271
#	118379
#	124090
#	146950
#	165755
#	185168
#	196991
#	218166
#
# Disc length: 2920 seconds
#
# Revision: 1
# Processed by: cddbd v1.5.1PL2 Copyright (c) Steve Scherf et al.
# Submitted via: CDex 1.50
#
DISCID=b80b660d
DTITLE=Annie Ébène - Qué. and Congo RDC - Lema
DYEAR=2005
DGENRE=World - African
TTITLE0=Dummy record
TTITLE1=Y'a fol
TTITLE2=Ba songer
TTITLE3=Cobaye
TTITLE4=Gifouthsi
TTITLE5=Lema
TTITLE6=Souvenir d'enfance - interlude
TTITLE7=Awulaba gboshka
TTITLE8=Munzenza
TTITLE9=Je viens de la forêt
TTITLE10=Giyoungou
TTITLE11=L'école des femmes
TTITLE12=Dummy record
EXTD=YEAR: 2005
EXTT0=
EXTT1=
EXTT2=
EXTT3=
EXTT4=
EXTT5=
EXTT6=
EXTT7=
EXTT8=
EXTT9=
EXTT10=
EXTT11=
EXTT12=
PLAYORDER=
